<svg id="Capa_1" data-name="Capa 1" xmlns="http://www.w3.org/2000/svg" viewBox="0 0 680.48 439.85"><defs><style>.cls-1,.cls-3{fill:#010101;}.cls-2{fill:none;stroke:#010101;}.cls-2,.cls-3{stroke-miterlimit:10;stroke-width:4px;}.cls-3{stroke:#3b78bc;}</style></defs><path class="cls-1" d="M92.75,337.07q5.66,0,8.14,2.79t2.49,8.11v3.88a12.61,12.61,0,0,1-1.43,6.4,7.6,7.6,0,0,1-4.5,3.41,7.24,7.24,0,0,1,4.63,3.51,13.55,13.55,0,0,1,1.36,6.43V379c0,1,0,2.05.14,3a6.7,6.7,0,0,0,.82,2.69H99a8.72,8.72,0,0,1-.69-2.22,23.78,23.78,0,0,1-.2-3.57v-7.49q0-4-1.8-5.55a7.71,7.71,0,0,0-5.15-1.54H87.44v20.37H82.13V337.07Zm-1.36,22.48a8.11,8.11,0,0,0,5-1.33c1.18-.89,1.77-2.62,1.77-5.21v-4.56a8,8,0,0,0-1.26-4.91c-.84-1.09-2.26-1.63-4.26-1.63H87.44v17.64Z" transform="translate(-82.13 -36.29)"/><path class="cls-1" d="M148.94,384.68h-5.11l-7.9-37.94v38H131.3V337.07h7.42l7.84,38.08,7.56-38.08h7.42v47.68h-5V346.4Z" transform="translate(-82.13 -36.29)"/><path class="cls-1" d="M232.65,336.6q5.52,0,8.14,3.26a13.59,13.59,0,0,1,2.62,8.72v4.29h-5v-4.56a8.38,8.38,0,0,0-1.33-5.07,5.87,5.87,0,0,0-8.48,0,8.24,8.24,0,0,0-1.36,5.07v25.2a8.24,8.24,0,0,0,1.36,5.07,5.87,5.87,0,0,0,8.48,0,8.38,8.38,0,0,0,1.33-5.07v-6.2h5v5.93a13.59,13.59,0,0,1-2.62,8.72q-2.62,3.27-8.14,3.27T224.58,382a13.53,13.53,0,0,1-2.63-8.72V348.58a17.69,17.69,0,0,1,.65-4.94,10.18,10.18,0,0,1,2-3.78,8.67,8.67,0,0,1,3.33-2.41A12.05,12.05,0,0,1,232.65,336.6Z" transform="translate(-82.13 -36.29)"/><path class="cls-1" d="M270.24,348.58q0-5.5,2.69-8.75c1.8-2.16,4.53-3.23,8.21-3.23s6.43,1.07,8.24,3.23,2.73,5.08,2.73,8.75v24.66a13.17,13.17,0,0,1-2.73,8.72q-2.72,3.27-8.24,3.27c-3.68,0-6.41-1.09-8.21-3.27a13.32,13.32,0,0,1-2.69-8.72Zm5.25,24.93a8.11,8.11,0,0,0,1.39,5.07,6,6,0,0,0,8.55,0,8.24,8.24,0,0,0,1.36-5.07v-25.2a8.24,8.24,0,0,0-1.36-5.07,6,6,0,0,0-8.55,0,8.11,8.11,0,0,0-1.39,5.07Z" transform="translate(-82.13 -36.29)"/><path class="cls-1" d="M324.25,384.75h-4.76V337.07h6.74l11,34.47V337.07H342v47.68h-5.51l-12.2-38.55Z" transform="translate(-82.13 -36.29)"/><path class="cls-1" d="M379.83,336.6c3.63,0,6.31,1.07,8,3.23a13.54,13.54,0,0,1,2.59,8.68v1.3h-5v-1.57a8.45,8.45,0,0,0-1.3-5,5.76,5.76,0,0,0-8.31,0,8.32,8.32,0,0,0-1.29,5,8.85,8.85,0,0,0,1.19,4.64,17.19,17.19,0,0,0,3,3.64c1.18,1.11,2.47,2.2,3.85,3.27a31.33,31.33,0,0,1,3.85,3.51,17.88,17.88,0,0,1,3,4.32,12.82,12.82,0,0,1,1.19,5.76q0,5.44-2.62,8.68t-8.14,3.24q-5.52,0-8.1-3.24t-2.59-8.68v-2.73h5v3a8.17,8.17,0,0,0,1.36,5,5.93,5.93,0,0,0,8.45,0,8.11,8.11,0,0,0,1.36-5A8.68,8.68,0,0,0,384,369a18.16,18.16,0,0,0-3-3.61c-1.18-1.11-2.46-2.2-3.82-3.27a31.58,31.58,0,0,1-3.81-3.51,17.88,17.88,0,0,1-3-4.32,12.82,12.82,0,0,1-1.2-5.76c0-3.67.87-6.58,2.59-8.71S376.24,336.6,379.83,336.6Z" transform="translate(-82.13 -36.29)"/><path class="cls-1" d="M424.51,384.75V341.91h-8.79v-4.84h22.89v4.84h-8.79v42.84Z" transform="translate(-82.13 -36.29)"/><path class="cls-1" d="M475.32,337.07q5.65,0,8.14,2.79T486,348v3.88a12.51,12.51,0,0,1-1.44,6.4,7.54,7.54,0,0,1-4.49,3.41,7.24,7.24,0,0,1,4.63,3.51A13.55,13.55,0,0,1,486,371.6V379c0,1,.05,2.05.14,3a6.7,6.7,0,0,0,.82,2.69h-5.38a8.33,8.33,0,0,1-.68-2.22,22.24,22.24,0,0,1-.21-3.57v-7.49q0-4-1.8-5.55a7.71,7.71,0,0,0-5.15-1.54H470v20.37h-5.32V337.07ZM474,359.55a8.11,8.11,0,0,0,5-1.33c1.18-.89,1.77-2.62,1.77-5.21v-4.56a8,8,0,0,0-1.26-4.91c-.84-1.09-2.26-1.63-4.26-1.63H470v17.64Z" transform="translate(-82.13 -36.29)"/><path class="cls-1" d="M519,373.51a8.38,8.38,0,0,0,1.33,5.07,4.9,4.9,0,0,0,4.25,1.81,4.83,4.83,0,0,0,4.19-1.81,8.38,8.38,0,0,0,1.33-5.07V337.07h5v36.17a13.76,13.76,0,0,1-2.59,8.75q-2.58,3.3-8.1,3.3t-8-3.3a13.82,13.82,0,0,1-2.59-8.75V337.07H519Z" transform="translate(-82.13 -36.29)"/><path class="cls-1" d="M573,336.6q5.52,0,8.14,3.26a13.53,13.53,0,0,1,2.62,8.72v4.29h-5v-4.56a8.38,8.38,0,0,0-1.33-5.07,5.87,5.87,0,0,0-8.48,0,8.24,8.24,0,0,0-1.36,5.07v25.2a8.24,8.24,0,0,0,1.36,5.07,5.87,5.87,0,0,0,8.48,0,8.38,8.38,0,0,0,1.33-5.07v-6.2h5v5.93a13.53,13.53,0,0,1-2.62,8.72q-2.62,3.27-8.14,3.27T564.92,382a13.53,13.53,0,0,1-2.62-8.72V348.58a17.7,17.7,0,0,1,.64-4.94,10.18,10.18,0,0,1,2-3.78,8.75,8.75,0,0,1,3.33-2.41A12.05,12.05,0,0,1,573,336.6Z" transform="translate(-82.13 -36.29)"/><path class="cls-1" d="M617.94,384.75V341.91h-8.79v-4.84H632v4.84h-8.79v42.84Z" transform="translate(-82.13 -36.29)"/><path class="cls-1" d="M663.44,337.07v47.68h-5.31V337.07Z" transform="translate(-82.13 -36.29)"/><path class="cls-1" d="M690.88,348.58q0-5.5,2.7-8.75c1.79-2.16,4.52-3.23,8.2-3.23s6.43,1.07,8.24,3.23,2.73,5.08,2.73,8.75v24.66A13.17,13.17,0,0,1,710,382q-2.71,3.27-8.24,3.27t-8.2-3.27a13.27,13.27,0,0,1-2.7-8.72Zm5.25,24.93a8,8,0,0,0,1.4,5.07,5.94,5.94,0,0,0,8.54,0,8.24,8.24,0,0,0,1.37-5.07v-25.2a8.24,8.24,0,0,0-1.37-5.07,5.94,5.94,0,0,0-8.54,0,8,8,0,0,0-1.4,5.07Z" transform="translate(-82.13 -36.29)"/><path class="cls-1" d="M744.9,384.75h-4.77V337.07h6.74l11,34.47V337.07h4.7v47.68h-5.51L744.9,346.2Z" transform="translate(-82.13 -36.29)"/><path class="cls-1" d="M199,465.17l-2.39,10.56h-2.86L204.21,428h4.57l10.62,47.75h-3.13l-2.39-10.56Zm.47-2.72h13.9l-7-30.86Z" transform="translate(-82.13 -36.29)"/><path class="cls-1" d="M227.78,475.73h-2.86V428.05H229l14.31,40.25V428.05h2.86v47.68h-3.48l-14.91-42.5Z" transform="translate(-82.13 -36.29)"/><path class="cls-1" d="M262.79,428.05a12.22,12.22,0,0,1,4.73.85,8.54,8.54,0,0,1,3.3,2.42,10.16,10.16,0,0,1,1.91,3.75,17.73,17.73,0,0,1,.61,4.83v24a17.73,17.73,0,0,1-.61,4.83,10.16,10.16,0,0,1-1.91,3.75,8.54,8.54,0,0,1-3.3,2.42,12,12,0,0,1-4.73.85H252.3V428.05Zm-.07,44.82q4,0,5.75-2.45a10.85,10.85,0,0,0,1.74-6.41V439.77a10.71,10.71,0,0,0-1.77-6.41q-1.77-2.44-5.72-2.45h-7.29v42Z" transform="translate(-82.13 -36.29)"/><path class="cls-1" d="M301.06,428.05a12.23,12.23,0,0,1,4.74.85,8.54,8.54,0,0,1,3.3,2.42,10.16,10.16,0,0,1,1.91,3.75,17.73,17.73,0,0,1,.61,4.83v24a17.73,17.73,0,0,1-.61,4.83,10.16,10.16,0,0,1-1.91,3.75,8.54,8.54,0,0,1-3.3,2.42,12.05,12.05,0,0,1-4.74.85H290.57V428.05ZM301,472.87q4,0,5.75-2.45a10.85,10.85,0,0,0,1.74-6.41V439.77a10.71,10.71,0,0,0-1.77-6.41c-1.19-1.63-3.09-2.45-5.72-2.45h-7.29v42Z" transform="translate(-82.13 -36.29)"/><path class="cls-1" d="M333.69,450.12V453h-13v19.89h15.66v2.86h-18.8V428.05h18.8v2.86H320.68v19.21Z" transform="translate(-82.13 -36.29)"/><path class="cls-1" d="M352.14,427.64a11,11,0,0,1,4.64.89,8.33,8.33,0,0,1,3.13,2.48,10.52,10.52,0,0,1,1.8,3.78,18.45,18.45,0,0,1,.58,4.77v1h-3v-1.22a15.41,15.41,0,0,0-.38-3.51,7.87,7.87,0,0,0-1.22-2.79,6,6,0,0,0-2.22-1.88,7.31,7.31,0,0,0-3.27-.68q-3.87,0-5.48,2.49a11.42,11.42,0,0,0-1.6,6.3,9.29,9.29,0,0,0,1.26,5,16,16,0,0,0,3.2,3.71,47.09,47.09,0,0,0,4.16,3.2,38.61,38.61,0,0,1,4.15,3.34,16.37,16.37,0,0,1,3.2,4.12,11.57,11.57,0,0,1,1.26,5.59,18.45,18.45,0,0,1-.58,4.77,10.26,10.26,0,0,1-1.84,3.78,8.48,8.48,0,0,1-3.2,2.48,12.67,12.67,0,0,1-9.33,0,8.56,8.56,0,0,1-3.2-2.48,10.42,10.42,0,0,1-1.84-3.78,18.45,18.45,0,0,1-.58-4.77v-2.45h3v2.65a11.21,11.21,0,0,0,1.63,6.3q1.63,2.49,5.59,2.49t5.58-2.49a11.21,11.21,0,0,0,1.64-6.3,9.16,9.16,0,0,0-1.26-4.9,16,16,0,0,0-3.2-3.71,44.61,44.61,0,0,0-4.16-3.17,34.94,34.94,0,0,1-4.15-3.3,15.83,15.83,0,0,1-3.2-4.16,11.87,11.87,0,0,1-1.26-5.69,13.93,13.93,0,0,1,2.41-8.58C346,428.78,348.6,427.69,352.14,427.64Z" transform="translate(-82.13 -36.29)"/><path class="cls-1" d="M371.28,428.05v47.68h-3.13V428.05Z" transform="translate(-82.13 -36.29)"/><path class="cls-1" d="M387.56,427.64a10.89,10.89,0,0,1,4.67.92,9,9,0,0,1,3.2,2.52,10.37,10.37,0,0,1,1.84,3.82,19.13,19.13,0,0,1,.58,4.8v3.54h-3v-3.75a15.81,15.81,0,0,0-.38-3.54,7.83,7.83,0,0,0-1.26-2.86,6.17,6.17,0,0,0-2.24-1.91,8.54,8.54,0,0,0-6.68,0,6.12,6.12,0,0,0-2.25,1.91,7.83,7.83,0,0,0-1.26,2.86,15.83,15.83,0,0,0-.37,3.54v24.8a15.83,15.83,0,0,0,.37,3.54,7.42,7.42,0,0,0,1.26,2.82,6.24,6.24,0,0,0,2.25,1.88,8.54,8.54,0,0,0,6.68,0,6.29,6.29,0,0,0,2.24-1.88,7.42,7.42,0,0,0,1.26-2.82,15.81,15.81,0,0,0,.38-3.54V454h-6.34v-2.86h9.34v12.94a19.13,19.13,0,0,1-.58,4.8,10.37,10.37,0,0,1-1.84,3.82,9,9,0,0,1-3.2,2.52,12.29,12.29,0,0,1-9.33,0,8.93,8.93,0,0,1-3.21-2.52,10.2,10.2,0,0,1-1.83-3.82,18.68,18.68,0,0,1-.58-4.8V439.7a18.68,18.68,0,0,1,.58-4.8,10.2,10.2,0,0,1,1.83-3.82,8.93,8.93,0,0,1,3.21-2.52A10.82,10.82,0,0,1,387.56,427.64Z" transform="translate(-82.13 -36.29)"/><path class="cls-1" d="M406.7,475.73h-2.86V428.05h4.08l14.31,40.25V428.05h2.86v47.68h-3.47l-14.92-42.5Z" transform="translate(-82.13 -36.29)"/><path class="cls-1" d="M452.47,427.64a11,11,0,0,1,4.63.89,8.25,8.25,0,0,1,3.13,2.48,10.7,10.7,0,0,1,1.81,3.78,18.89,18.89,0,0,1,.58,4.77v1h-3v-1.22a16,16,0,0,0-.37-3.51,7.71,7.71,0,0,0-1.23-2.79,6,6,0,0,0-2.21-1.88,7.31,7.31,0,0,0-3.27-.68q-3.89,0-5.49,2.49a11.5,11.5,0,0,0-1.6,6.3,9.29,9.29,0,0,0,1.26,5,16,16,0,0,0,3.2,3.71,48.61,48.61,0,0,0,4.16,3.2,38.61,38.61,0,0,1,4.15,3.34,16.14,16.14,0,0,1,3.2,4.12,11.57,11.57,0,0,1,1.26,5.59,18.9,18.9,0,0,1-.57,4.77,10.42,10.42,0,0,1-1.84,3.78,8.56,8.56,0,0,1-3.2,2.48,12.7,12.7,0,0,1-9.34,0,8.56,8.56,0,0,1-3.2-2.48,10.42,10.42,0,0,1-1.84-3.78,18.9,18.9,0,0,1-.57-4.77v-2.45h3v2.65a11.21,11.21,0,0,0,1.64,6.3q1.63,2.49,5.58,2.49c2.63,0,4.5-.83,5.59-2.49a11.21,11.21,0,0,0,1.63-6.3,9.16,9.16,0,0,0-1.26-4.9,16,16,0,0,0-3.2-3.71,44.46,44.46,0,0,0-4.15-3.17,35,35,0,0,1-4.16-3.3,16,16,0,0,1-3.2-4.16,11.87,11.87,0,0,1-1.26-5.69,13.93,13.93,0,0,1,2.42-8.58Q447.16,427.71,452.47,427.64Z" transform="translate(-82.13 -36.29)"/><path class="cls-1" d="M476.71,475.73V430.91H467v-2.86h22.54v2.86h-9.67v44.82Z" transform="translate(-82.13 -36.29)"/><path class="cls-1" d="M497.35,464.22a16.22,16.22,0,0,0,.38,3.57,8.09,8.09,0,0,0,1.22,2.9,5.87,5.87,0,0,0,2.22,1.91,8.52,8.52,0,0,0,6.67,0,5.77,5.77,0,0,0,2.21-1.91,8.1,8.1,0,0,0,1.23-2.9,16.23,16.23,0,0,0,.37-3.57V428.05h2.93v36a19.78,19.78,0,0,1-.54,4.77,10.78,10.78,0,0,1-1.77,3.81,8.5,8.5,0,0,1-3.17,2.56,12.29,12.29,0,0,1-9.33,0,8.5,8.5,0,0,1-3.17-2.56,11,11,0,0,1-1.8-3.81,18.34,18.34,0,0,1-.58-4.77v-36h3.13Z" transform="translate(-82.13 -36.29)"/><path class="cls-1" d="M531.2,428.05a12.23,12.23,0,0,1,4.74.85,8.62,8.62,0,0,1,3.3,2.42,10.16,10.16,0,0,1,1.91,3.75,18.13,18.13,0,0,1,.61,4.83v24a18.13,18.13,0,0,1-.61,4.83,10.16,10.16,0,0,1-1.91,3.75,8.62,8.62,0,0,1-3.3,2.42,12.05,12.05,0,0,1-4.74.85H520.71V428.05Zm-.07,44.82q4,0,5.76-2.45a10.85,10.85,0,0,0,1.74-6.41V439.77a10.64,10.64,0,0,0-1.78-6.41c-1.18-1.63-3.08-2.45-5.72-2.45h-7.28v42Z" transform="translate(-82.13 -36.29)"/><path class="cls-1" d="M550.82,428.05v47.68h-3.14V428.05Z" transform="translate(-82.13 -36.29)"/><path class="cls-1" d="M556.81,439.7a17.82,17.82,0,0,1,.61-4.8,10.76,10.76,0,0,1,1.88-3.82,8.83,8.83,0,0,1,3.23-2.52,11.1,11.1,0,0,1,4.7-.92,11.31,11.31,0,0,1,4.73.92,9.2,9.2,0,0,1,3.31,2.52,10.31,10.31,0,0,1,1.9,3.82,17.81,17.81,0,0,1,.62,4.8v24.38a17.81,17.81,0,0,1-.62,4.8,10.31,10.31,0,0,1-1.9,3.82,9.2,9.2,0,0,1-3.31,2.52,11.31,11.31,0,0,1-4.73.92,11.1,11.1,0,0,1-4.7-.92,8.83,8.83,0,0,1-3.23-2.52,10.76,10.76,0,0,1-1.88-3.82,17.82,17.82,0,0,1-.61-4.8Zm3.13,24.59a11.55,11.55,0,0,0,1.67,6.43c1.11,1.7,3,2.56,5.62,2.56s4.53-.86,5.69-2.56a11.17,11.17,0,0,0,1.73-6.43v-24.8a11.17,11.17,0,0,0-1.73-6.43c-1.16-1.7-3.06-2.56-5.69-2.56s-4.51.86-5.62,2.56a11.55,11.55,0,0,0-1.67,6.43Z" transform="translate(-82.13 -36.29)"/><path class="cls-1" d="M598.15,428.05v47.68H595V428.05Z" transform="translate(-82.13 -36.29)"/><path class="cls-1" d="M607.21,475.73h-2.86V428.05h4.09l14.3,40.25V428.05h2.86v47.68h-3.47l-14.92-42.5Z" transform="translate(-82.13 -36.29)"/><path class="cls-1" d="M641.81,427.64a10.89,10.89,0,0,1,4.67.92,9.06,9.06,0,0,1,3.2,2.52,10.2,10.2,0,0,1,1.83,3.82,18.68,18.68,0,0,1,.58,4.8v3.95h-3v-4.16a15.81,15.81,0,0,0-.38-3.54,7.83,7.83,0,0,0-1.26-2.86,6.12,6.12,0,0,0-2.25-1.91,8.52,8.52,0,0,0-6.67,0,6.12,6.12,0,0,0-2.25,1.91A7.83,7.83,0,0,0,635,436a15.83,15.83,0,0,0-.37,3.54v24.8a15.83,15.83,0,0,0,.37,3.54,7.42,7.42,0,0,0,1.26,2.82,6.24,6.24,0,0,0,2.25,1.88,8.52,8.52,0,0,0,6.67,0,6.24,6.24,0,0,0,2.25-1.88,7.42,7.42,0,0,0,1.26-2.82,15.81,15.81,0,0,0,.38-3.54v-5.66h3v5.45a18.68,18.68,0,0,1-.58,4.8,10.2,10.2,0,0,1-1.83,3.82,9.06,9.06,0,0,1-3.2,2.52,12.31,12.31,0,0,1-9.34,0,9,9,0,0,1-3.2-2.52,10.37,10.37,0,0,1-1.84-3.82,19.13,19.13,0,0,1-.58-4.8V439.7a19.13,19.13,0,0,1,.58-4.8,10.37,10.37,0,0,1,1.84-3.82,9,9,0,0,1,3.2-2.52A10.89,10.89,0,0,1,641.81,427.64Z" transform="translate(-82.13 -36.29)"/><path class="cls-1" d="M660.61,469.73v6h-3.07v-6Z" transform="translate(-82.13 -36.29)"/><polyline class="cls-2" points="286.03 187.73 286.03 32.49 242.26 29.01 242.26 2.17 554.46 27.43 554.46 132.4 242.26 107.2 150.06 138.42 150.06 39.87 221.25 16.17 221.25 89.7 165.24 108.91 165.24 80.76 242.24 54.69 520.61 77.12 520.61 154.1 242.24 131.71 166.99 157.2 167.57 183.65 242.24 158.56 520.61 180.93 520.61 207.35"/><polygon class="cls-1" points="586.9 213.33 242.24 185.53 115.99 227.94 115.99 245.18 243.05 202.64 586.9 228.57 586.9 213.33"/><line class="cls-2" x1="167.57" y1="183.65" x2="167.57" y2="211.83"/><path class="cls-3" d="M325.17,204" transform="translate(-82.13 -36.29)"/><line class="cls-2" x1="538.15" y1="131.08" x2="538.15" y2="209.4"/></svg>