<svg width="471" height="335" viewBox="0 0 471 335" fill="none" xmlns="http://www.w3.org/2000/svg">
<path d="M170.04 234.57V79.33L126.27 75.84V49L438.46 74.26V179.23L126.27 154.04L34.07 185.25V86.71L105.26 63.01V136.53L49.24 155.75V127.59L126.25 101.52L404.62 123.96V200.93L126.25 178.55L50.99 204.04L51.58 230.48L126.25 205.39L404.62 227.76V254.19" stroke="#B3834D" stroke-width="14" stroke-miterlimit="10"/>
<path d="M127.098 243.971L126.997 243.964L126.901 243.996L0.5 286.315V270.13L126.312 227.877L470.41 255.621V269.871L127.098 243.971Z" fill="#B3834D" stroke="#B3834D"/>
<path d="M51.58 230.48V258.66" stroke="#B3834D" stroke-width="14" stroke-miterlimit="10"/>
<path d="M422.16 177.92V256.23" stroke="#B3834D" stroke-width="14" stroke-miterlimit="10"/>
</svg>
